<svg width="15" height="15" viewBox="0 0 15 15" fill="none" xmlns="http://www.w3.org/2000/svg">
<g clip-path="url(#clip0_614_6846)">
<rect width="15" height="15" rx="7.5" fill="#1A47B8"/>
<path fill-rule="evenodd" clip-rule="evenodd" d="M-1 10H20V15H-1V10Z" fill="#F93939"/>
<path fill-rule="evenodd" clip-rule="evenodd" d="M-1 0H20V5H-1V0ZM8.93 10H9V5H2V10H2.07C2.024 10.162 2 10.33 2 10.5C2 11.88 5.5 13 5.5 13C5.5 13 9 11.88 9 10.5C9 10.33 8.976 10.162 8.93 10Z" fill="white"/>
<path fill-rule="evenodd" clip-rule="evenodd" d="M8 10V4H3V10C3 11.105 5.5 12 5.5 12C5.5 12 8 11.105 8 10Z" fill="#F93939"/>
<path fill-rule="evenodd" clip-rule="evenodd" d="M5 8V7H4V6H5V5H6V6H7V7H6V8H7.5V9H6V10H5V9H3.5V8H5Z" fill="white"/>
<path fill-rule="evenodd" clip-rule="evenodd" d="M5.5 11.9998C5.5 11.9998 8 11.1048 8 9.99983C8 8.89483 7 8.99983 5.5 9.99983C4 8.99983 3 8.89483 3 9.99983C3 11.1048 5.5 11.9998 5.5 11.9998Z" fill="#1A47B8"/>
</g>
<defs>
<clipPath id="clip0_614_6846">
<rect width="15" height="15" rx="7.5" fill="white"/>
</clipPath>
</defs>
</svg>
